<svg width="12" height="18" viewBox="0 0 12 18" fill="none" xmlns="http://www.w3.org/2000/svg">
<path fill-rule="evenodd" clip-rule="evenodd" d="M9.58447 8.87971L6.00008 14.7921L2.41569 8.87971C0.677158 6.01205 2.69711 2.30942 6.00008 2.30942C9.30306 2.30942 11.323 6.01205 9.58447 8.87971ZM1.04806 9.74421C-1.35382 5.78238 1.43685 0.666992 6.00008 0.666992C10.5633 0.666992 13.354 5.78238 10.9521 9.74421L6.53566 17.029C6.2894 17.4352 5.71076 17.4352 5.46451 17.029L1.04806 9.74421ZM6.00024 4.77305C5.1119 4.77305 4.39176 5.50839 4.39176 6.41547C4.39176 7.32256 5.1119 8.0579 6.00024 8.0579C6.88858 8.0579 7.60873 7.32256 7.60873 6.41547C7.60873 5.50839 6.88858 4.77305 6.00024 4.77305Z" fill="#FF7A00"/>
</svg>
